<svg xmlns="http://www.w3.org/2000/svg" width="363.995" height="176.274" viewBox="0 0 96.307 46.639" xml:space="preserve"><path d="M0 46.64h96.307v-.849H0ZM34.703 23.7H0v.849h34.448l.255-.848m25.748 0 .128.848h35.728V23.7H60.45m22.21 2.237-.153 3.156h-1.142l-.152-3.156h1.446m-71.134 6.098V28.27c0-.265-.199-.399-.487-.399v-.399h3.412v.4c-.2 0-.4.133-.4.398v10.059c0 .267.2.398.4.398v.4h-3.412v-.4c.288 0 .487-.131.487-.398v-4.165H4.392v4.165c0 .267.2.398.4.398v.4H1.445v-.4c.222 0 .421-.131.421-.398v-10.06c0-.265-.199-.399-.42-.399v-.399H4.79v.4c-.2 0-.4.133-.4.398v3.767h7.135m3.956 7.09v-.4c.376-.043.576-.42.775-.84l4.099-8.62c.2-.376.399-.73.399-.953 0-.287-.266-.398-.487-.443v-.399h3.744v.4c-.199.044-.466.133-.466.442 0 .222.111.444.31.82l4.61 9.018c.154.31.398.444.73.575v.4h-3.899v-.4c.111 0 .354-.088.354-.265 0-.133-.044-.332-.177-.576l-.842-1.64h-5.406l-.797 1.573c-.134.289-.222.532-.222.666 0 .132.199.242.421.242v.4zm4.409-4.52h3.944l-1.862-4.12-2.082 4.12m21.453 5.008c0-.444-.31-.488-.752-.488H30.045v-.4c.465 0 .665-.131.665-.398V28.269c0-.265-.2-.399-.665-.399v-.399h3.81v.4c-.42 0-.62.133-.62.398v8.818h7.357c.442 0 .752-.221.752-.575h.4v3.102h-.4m12.741 0c0-.444-.31-.488-.753-.488H42.786v-.4c.465 0 .664-.131.664-.398V28.269c0-.265-.2-.399-.664-.399v-.399h3.81v.4c-.42 0-.62.133-.62.398v8.818h7.356c.443 0 .753-.221.753-.575h.4v3.102h-.4m12.745-9.75h-.4c0-.31-.221-.487-.84-.487h-7.18v2.748h4.343c.576 0 .93-.089.93-.754h.399v3.457h-.398c0-.665-.355-.798-.931-.798H58.41v3.057h7.4c.444 0 .754-.221.754-.575h.398v3.102h-.398c0-.444-.31-.488-.753-.488H55.486v-.4c.2 0 .398-.131.398-.398V28.269c0-.265-.199-.399-.398-.399v-.399h10.103c.62 0 .841-.22.841-.532h.4v2.926m1.296-2.394h7.578c2.835 0 4.696.932 4.696 3.457 0 1.928-1.24 2.924-3.19 3.279l2.947 4.21c.2.288.51.31.754.31v.399h-4.144v-.4c.266 0 .487-.11.487-.242 0-.156-.132-.333-.354-.643l-2.438-3.456h-3.167v3.943c0 .267.155.398.664.398v.4h-3.833v-.4c.443 0 .643-.131.643-.398V28.269c0-.265-.2-.399-.643-.399zm3.169 5.185h3.832c2.127 0 2.748-.708 2.748-1.64 0-.93-.62-1.639-2.748-1.639h-3.832v3.279m11.9 5.495 1.22-2.68.22.11c0 .132.023.244.09.354.442.731 2.637 1.418 4.032 1.418.974 0 3.567-.243 3.567-1.595 0-2.703-8.996.687-8.996-4.741 0-1.84 1.706-3.678 5.385-3.678 3.078 0 4.563 1.108 5.316 1.108.223 0 .355-.044.444-.134l.265.178-1.528 2.77-.222-.09a1.157 1.157 0 0 0-.177-.509c-.465-.686-2.326-1.418-4.033-1.418-1.306 0-2.923.377-2.923 1.352 0 2.814 8.995-.466 8.995 4.852 0 3.057-3.656 3.811-6.05 3.811-3.41 0-4.342-1.108-5.006-1.108-.111 0-.222.089-.288.177l-.31-.177" style="fill:#fff"></path><path d="M48.293.832c.274-.295 1.098-1.163 2.08-.697.193 1.602-.427 2.948-1.136 4.324.61-.103 1.37-.364 1.955-.129-.018 1.276-.544 2.433-1.07 3.592-.05.333.08.485.374.555.293.07.716-.111 1.129-.402.86-.665 1.758-1.324 2.102-1.475.343-.152 1.051-.3 1.454-.243.334.683.256 1.732.201 2.433l.177-.376c.537-1.096 1.398-1.896 2.398-2.446.626-.39.773.481.81.693.038.21.008.584.12.718.622-.31 1.006-1.018 1.588-1.478.612-.497 1.894-.917 2.556-.576.229.889-.36 1.813-.586 2.62l.234-.062c1.292-.422 2.604-.016 3.508.867.241.21.298.563.18.8-1.18 1.553-2.816-.023-3.672.515-.629.348-1.4.408-1.4.408-.04.137.408.289.29.784-.238.354-.851.436-.998.592.177.268 1.176.272.945.94-.376.557-1.73 1.897-2.343 2.478 0 0 .332-.041.579-.081.246-.04.383-.07.481-.1.098-.03 1.424-.273 1.94.029.585.343-.441 1.799-.441 1.799s1.664-.231 2.418-.033c.753.199 1.848.934 1.893 1.226.046.291-.77.823-1.51.969-.987.19-1.72.013-1.72.013.423 1.12.12 1.724.057 1.855-.062.131-.369.464-.744.47-.376.004-1.22-.735-1.22-.735s-.32.654-.613.639c-.265-.014-1.332-.494-1.802-.84l.186.215c.992 1.204 1.022 3.704 1.029 4.007-.052.71-.64.647-1.151.735l-.967.065s-.98.04-1.845-.095c-.864-.134-3.425-1.141-3.425-1.141s-.56.116-1.29.08c-.73-.037-1.797-.294-2.196-.188-.397.105-2.096.129-2.826.093-.73-.035-2.459-.613-2.459-.613-1.02.74-4.93 1.895-5.64 2.015-.709.12-1.673.396-2.055.46-.382.065-.574-.407-.593-.517-.112-1.231.472-2.718.993-3.768-.433.335-1.01.545-1.167.59-1.178.334-.872-.532-.872-.532s-.953.72-1.161.743c-.362.038-.644-.271-.733-.435-.09-.163-.373-.701.005-1.797 0 0-.704.191-1.665.033-.718-.122-1.522-.616-1.486-.899.037-.283.921-1.051 1.8-1.236.739-.156 2.343-.032 2.343-.032s-1.013-1.353-.475-1.73c.47-.33 1.346-.238 1.79-.163l-.02-.036-.35-.609c-.146-.282-.322-.7-.248-1.105.253-.717.996-.835 1.558-1.095-.513-.244-1.637-.595-1.698-.8-.075-.443.379-.59.632-.857 0 0-2.048-.43-2.21-.481-.161-.05-.42-.202-.306-.46.114-.257.4-.414.4-.414-.84-.423-1.939-.237-2.542-1.108-.19-.565.479-.884.757-1.006s2.217-.267 3.317-.263c.08-.485-.222-1.363.444-1.696.727 0 1.786.593 2.38 1.592.225-.23.225-.775.573-.882.329.097 1.536.918 2.088 1.58-.073-.496-.262-1.088-.063-1.672.535-.164 1.482-.012 2.21.067l.165.019c-.537-1.136-.92-2.48-.204-3.45.808-.324 1.93.127 2.687.518l.16.057c-.08-.98-.565-2.04.139-3.203.27-.077.517-.009.762.14 0 0 1.076.65 1.583 1.175.328.339.616.01.727-.172.11-.182.242-.737.705-1.375" style="fill:#224333"></path><path d="M205.664 41.567c-5.992 1.075-12.2 8.375-13.799 11.07-1.599 2.693-4.407 11.841-.842 17.116-5.122-1.51-7.741-6.465-8.292-11.481 1.073-4.51 4.762-7.987 8.048-10.974 4.204-3.625 9.293-6.145 14.885-5.731m19.501 7.568c-.264 1.94-1.046 3.614-2.596 4.65-2.35-4.054-7.682-6.474-12.16-6.663-1.818.184-3.655-.155-5.29.714-1.285-.968-.085-2.925.898-3.117 6.622-1.308 14.092-.907 19.148 4.416" style="fill:#eb222f" transform="translate(-7.932 .098) scale(.26458)"></path><path d="M201.843 47.384c-.044 2.555-1.28 5.44-.11 8.504 1.27 6.074 6.116 9.827 11.33 12.919-4.62-.999-9.573-4.034-13.18-8.21-2.176-2.52-2.649-6.734-1.365-9.68.918-1.583 1.896-2.818 3.325-3.533m11.751 3.526c1.63.413.274 1.618-.228 2.174-1.346.469-.82-1.346-1.932-1.628-1.722-1.016-4.283-1.113-6.02-.519 1.078-1.314 4.776-.982 5.804-.756 1.03.226 2.376.729 2.376.729s-.695-.176 0 0" style="fill:#eb222f" transform="translate(-7.932 .098) scale(.26458)"></path><path d="M210.16 53.1c.631.188.776 1.055.666 1.428-1.482.72-3.684.682-5.157-.314-.4-.23-1.1-.529-.591-1.027 1.604-.686 3.634-.97 5.083-.088m-14.823 2.511c1.748 10.321 12.522 16.103 21.509 16.95 1.811.172 3.445.366 5.35.042-5.336 5.297-14.61 3.842-20.926 1.591-3.593-1.948-6.445-5.143-7.085-9.257-.524-3.108-.797-6.804 1.152-9.325m22.817-.896c-.543 3.824-4.84 4.731-8.139 5.886-1.784-.35-3.955-1.59-4.286-3.553 2.852-.004 7.369-.291 9.422-3.603 1.169-.44 2.415.59 3.003 1.27m8.465-1.201c-.87 2.94-2.695 6.052-5.1 8.57-2.153 2.255-4.873 4.04-8.122 4.12l-2.288-1.576c1.432-1.727 4.306-1.918 6.204-3.312 3.663-1.862 6.42-4.521 8.98-7.978.072.043.157.204.327.176m2.454 29.979c-2.212 1.756-2.976 2.29-5.335 3.151-1.757.642-3.646.911-5.474.277 2.488-3.562 6.584-5.98 8.382-10.084 3.737-3.191 6.159-8.167 7.373-12.937.125-2.043 3.033-3.781 3.264-5.962l1.033-5.452c1.07-.714 1.986.492 2.451 1.185.182 6.976-.577 15.402-2.612 20.281-2.033 4.88-9.082 9.541-9.082 9.541m-1.617-25.013c1.066 3.848.08 7.097-2.046 10.664-1.553.386-6.64-.763-6.74-.866-.587-.812 3.305-2.644 6.145-6.804.912-1.337 1.546-2.1 2.641-2.995m-36.325 15.055c6.534 5.655 14.633 7.546 22.812 7.827l6.303-1.306c-5.114 3.421-11.39 8.755-18.154 5.63-5.061-1.459-11.414-2.076-14.627-6.426-1.438-1.948-2.94-5.795-2.275-8.874 1.896.685 3.814 2.493 5.94 3.149m43.451-25.584c.841 2.883 1.34 5.47.669 8.197l-1.865 2.276c-.848-.802-.53-2.76-1.194-3.894-1.562-5.726-5.572-12.228-12.187-13.428-2.874-1.177-6.31-.117-9.144-1.415l.242-1.06c8.611.39 17.693 1.822 23.48 9.324" style="fill:#eb222f" transform="translate(-7.932 .098) scale(.26458)"></path><path d="M217.698 2.556c.79 5.739-1.478 12.295-6.66 15.73.705-3.569 5.144-7.447 5.7-11.594.125-.934-1.02-1.163-1.377-.417-1.095 2.278-1.52 4.71-3.324 6.317-.087-4.015 1.551-8.686 5.661-10.036M205.59 13.09c-2.12.224-3.533-3.936-4.375-3.414-.493.165-.074.93-.074.93 1.184 2.47 2.618 5.351 1.82 8.33-2.627-2.878-3.772-7.196-3.03-11.235 2.835.288 4.82 2.918 5.66 5.39m3.861 1.779c-2.022 6.995-7.789 13.254-6.153 21.163-.392.487-1.28.484-1.593-.32-1.16-5.664.758-9.234 2.934-14.142 1.079-2.43 4.217-6.718 4.118-10.798 1.082 1.127 1.015 2.711.694 4.096m-10.474 8.245c.579.972.61 2.566-.02 3.392-3.731-.903-6.86-7.428-7.917-6.797-.736.322.445 1.925.86 2.65 2.17 3.794 4.047 7.74 6.123 11.602-4.957-4.028-8.655-9.756-9.644-15.938 0 0-.32-1.485.745-1.551 3.698.009 7.983 3.337 9.853 6.642m-30.153 11.223c-2.522.187-4.395-4.499-5.463-4.231-.687.075-.063 1.72.344 2.368l3.436 4.519c-1.032.678-2.635-.86-3.127-1.603-1.44-2.182-3.232-5.092-2.261-7.754 3.89.173 4.631 4.556 7.071 6.7m51.572-14.431c-1.251 6.264-5.246 14.599-12.317 15.97 1.713-4.973 6.303-8.363 9.512-12.523 0 0 .625-.713-.11-.643-.732.07-4.892 3.046-7.204 5.442-1.531 1.583-2.427 3.196-4.14 4.673-1.007-1.074.136-3.321.528-3.89 3.237-4.701 7.145-8.903 13.166-9.885l.772-.086-.207.942m-62.539 14.153c-2.513-.465-7.012-.403-7.661-.25-.65.152-.83.313-.587.633 1.159 1.121 5.853.312 9.341 2.572.605.401.095.575.095.575-4.234.605-8.858-.815-12.411-3.18 3.19-2.551 7.9-2.104 11.223-.35m25.409 11.956c-4.279-2.962-7.484-10.175-8.475-10.437-.782-.282-.947.696-.792 1.266l2.1 5.405c-3.63-1.83-3.854-6.655-3.576-10.261 5.845 2.628 8.105 8.957 10.743 14.027m-19.386-6.869c-.948 1.645-4.096-.128-4.073 1.52.206 1.127 4.753.03 6.767 1.413-3.585 1.258-7.517.498-10.196-1.662 1.735-2.015 5.22-1.776 7.502-1.27m102.005-16.679c-.214 3.66-3.064 7.53-6.613 8.668-.23.038-.545.258-.617-.137-.13-.91 4.994-4.69 4.704-5.9-.255-.708-.973-.495-1.311-.019-2.087 2.73-4.604 5.404-7.296 7.413 2.401-4.092 4.242-9.483 10.406-10.072.408-.072.727.047.727.047m-16.81 3.499c1.011 3.517 1.23 8.342-1.822 10.933-.925-2.33.864-6.87-.081-7.107-.275-.144-.579.1-.579.1-1.517 3.943-2.213 8.627-4.715 11.719-.586-3.46.577-7.03 2.03-10.077.857-1.798 2.546-4.999 5.167-5.568m-73.583 19.706c-1.776 1.43-7.208-.76-7.13 1.027.036.8 1.526.927 2.142 1.062 3.13.601 6.384 1.236 9.372 2.75-4.34-.337-9.126-.237-13.28-2.326-1.25-.738-2.483-1.361-3.199-2.427 3.903-1.493 8.53-1.858 12.095-.086m101.829-12.081c.524.674.632 1.328.463 1.702-.998 1.233-7.752.49-10.705-1.51 0 0-.503-.309-.064-.4.44-.09 7.188 1.188 7.492 1.106.304-.08.819-.51.01-.956-.834-.462-5.018-.57-6.729-2.242 3.473-.532 6.906-.222 9.533 2.3m-11.447 2.532c-3.277.976-6.706.667-9.785-.299 1.632-.868 5.105-.073 5.389-.086.282-.013 1.055-.128.482-.815-.663-.797-2.6-.485-3.973-.844 1.177-.794 3.282-.93 4.214-.715.933.214 3.184.766 3.673 2.759m-7.281 5.033c-4.04 3.47-10.117 2.959-15.302 3.186 2.068-3.56 9.94-1.834 10.726-3.246.36-.705-.7-.907-1.522-.87-.753.033-3.493.714-5.063.207 3.528-1.958 8.215-2.636 11.16.723M143.89 73.316c2.965 2.151 7.764 2.404 10.895.379.177-.153.349-.305.284-.565-2.465-.418-5.995 1.087-7.545-.1-.39-.298-.113-.946.82-1.027 3.421-.291 7.094-.133 10.357-.942-4.69-.737-10.49-1.382-14.077 1.442-.277.246-.733.813-.733.813m12.249-8.421c2.08 3.011 5.675 6.24 9.614 5.525-1.217-2.196-5.216-3.603-5.447-4.57-.036-.178-.145-.366.444-.386.588-.02 8.076 3.761 12.053 3.786-2.304-2.65-5.825-3.923-9.08-4.822-2.525-.697-5.478-1.198-7.583.467m-1.682 17.071c2.83-1.916 4.768-4.764 5.97-7.758-1.705.71-2.877 3.905-3.481 4.111-.347.118-.512.137-.822-.134-.396-.912 1.156-2.326 1.75-3.617-1.36.408-2.814 1.827-3.224 2.807-.293.7-1.177 3.278-.193 4.59m7.395-.079c5.247-.924 8.703-5.949 12.167-9.813-4.064-.66-6.576 5.964-9.312 6.24-1.038.104-.087-1.345.292-1.73 1.16-1.18 2.769-2.25 3.371-3.785-3.75 1.487-7.248 4.681-6.518 9.088M275.95 68.037c-3.003 2.305-7.948 2.7-11.236.696-.185-.152-.367-.305-.312-.573 2.536-.503 5.338 1.076 7.785-.316.365-.207.193-.894-1.181-.865-3.545.074-7.016-.112-10.408-.854 4.82-.893 11.261-1.41 14.9 1.315.402.312.452.597.452.597m-12.883-8.348c-2.06 3.165-5.68 6.599-9.765 5.97 1.19-2.3 4.206-2.634 5.493-4.87 0 0 .279-.61-.467-.386-.745.222-8.233 4.108-12.336 4.247 2.302-2.801 5.903-4.214 9.237-5.231 2.586-.79 5.622-1.391 7.838.27m2.216 17.57c-2.976-1.897-5.055-4.783-6.38-7.837 1.78.684 3.345 3.882 3.71 4.146.196.143.721.509.844-.163.02-1.475-1.26-2.368-1.907-3.684 1.413.384 2.995 2.143 3.406 2.806.412.663 1.307 3.353.327 4.732m-7.638.127c-5.438-.808-9.15-5.896-12.83-9.788 4.171-.794 7.987 6.365 9.786 6.178.978-.157.084-1.28-.352-1.777-1.16-1.328-2.918-2.245-3.585-3.814 3.913 1.434 7.613 4.63 6.981 9.201m-61.916-39.422c-.185-.083-.213.104-.378.188-1.005-2.086-5.378-5.222-6.048-4.497-.669.724 3.207 3.497 3.152 5.996-2.577-2.294-6.418-7.56-7.308-7.074-.892.487-.414 1.155.882 2.833 2.558 2.823 2.836 5.44 2.836 5.44-1.696-.18-2.592-4.115-3.744-3.518-1.152.597 1.834 3.491 1.914 5.372-2.976-2.877-5.037-8.05-4.037-12.31 5.24-.589 10.35 3.294 12.73 7.57m39.623-8.956c1.51.64.786 10.905-.894 12.262-.458.169-.903-.088-1.11-.643-.07-1.771 1.753-4.634.975-5.098-.78-.463-1.805 2.68-2.708 4.023-1.018-.068-.982-1.34-.797-2.242.282-1.367 3.64-5.41 2.76-5.908-.877-.496-3.87 4.26-5.78 6.659-.497-1.581 2.117-4.254 1.044-4.743-.681-.39-2.676 2.462-3.72 3.95.64-3.907 4.9-6.487 8.526-8.153 1.002-.46 1.398-.235 1.704-.107 0 0-.9-.37 0 0M176.765 53.17c-2.222.71-6.573.298-6.554 1.286.02.989 4.751.026 6.632 1.672-3.559.88-8.482-.95-8.84.368-.176.666.874.888 1.339.902 2.72.079 5.175.78 7.545 2.102-2.467.177-7.152-1.002-7.343-.01-.19.992 5.803 2.174 8.616 3.355-5.713-.097-13.23-1.381-16.743-7.072 4.297-3.343 10.44-3.55 15.348-2.602m81.822-5.071c.082.705-1.664 2.909-2.796 4.158-2.238 2.471-4.616 4.993-8.303 4.966.9-1.693 4.796-3.157 4.268-3.87-.528-.714-4.237 1.26-4.715 1.218-.478-.043-.546-.37-.14-.808.406-.437 8.403-3.913 8.555-4.179.152-.265.299-.786-.892-.683-1.189.103-8.402 2.758-9.203 2.745-.573-.009-.59-.354-.538-.682.28-1.187 5.224-1.411 4.971-2.2-.254-.79-4.92-.005-5.764-.04-.845-.035-.387-.463-.1-.578.314-.258 8.015-2.52 14.657-.047m-78.98 26.79s.154.135.097.577c-.086.928-5.905 4.027-7.002 7.717 0 0 .104.556.635.246.53-.309 4.706-3.764 7.463-5.006 0 0 1.01-.175.53.687-.48.862-7.592 5.614-10.471 9.305 0 0-.123.413.096.58.22.164.74.277 1.324-.223.586-.5 8.198-6.253 10.788-6.395.645.056 1.12.214 1.068.65-.137.866-5.233 3.136-7.3 5.622.014.419-.036.71.5.868.538.157 6.176-4.508 8.927-3.71 1.628.347 2.27 1.818 2.27 1.818-5.824 3.477-15.394 5.422-21.684 6.84-.173-6.978 4.01-16.211 10.548-20.032.563-.328 1.91-.977 2.211.456m68.786 3.789c2.378 3.612 3.924 8.116 2.894 12.921-7.177.74-14.795 1.732-21.052-3.086-.758-.584.729-2.76 1.949-2.169 3.434 1.668 8.054 3.645 9.402 2.982.636-.312.356-1.072-.007-1.425l-5.528-3.572c-.277-.547.015-1.086.387-1.249.824-.36 4.617 1.705 6.89 3.214l3.373 2.398c.264.124.62.17.943-.04.894-.838-.938-3.328-2.225-4.559-1.288-1.23-5.139-3.868-5.139-3.868s-.41-.391.074-.608c.485-.217 4.328 2.063 6.47 3.118.815-.071.637-.981.338-1.474-1.773-2.92-5.956-2.973-4.442-6.609 2.28.15 4.316 2.35 5.673 4.026" style="fill:#9aa9aa" transform="translate(-7.932 .098) scale(.26458)"></path><path d="M4.566 44.743q0-.092-.061-.104-.055-.013-.147-.013H1.445v-.11q.184 0 .184-.11v-2.778q0-.11-.184-.11v-.11h1.053v.11q-.171 0-.171.11v2.435h2.031q.092 0 .147-.042.061-.043.061-.117h.11v.839zm2.452-1.365-.514-1.138-.575 1.138ZM4.71 44.516q.08-.012.122-.08.05-.067.092-.152l1.132-2.38q.043-.08.074-.147.036-.068.036-.117 0-.06-.043-.085-.042-.025-.091-.037v-.11h1.034v.11q-.043.012-.086.037-.043.018-.043.085 0 .05.019.098.024.05.067.129l1.273 2.49q.03.067.08.098.054.03.122.061v.11H7.422v-.11q.024 0 .06-.018.038-.018.038-.055 0-.061-.05-.16l-.232-.452H5.745l-.22.434q-.061.129-.061.184 0 .067.116.067v.11h-.87Zm4.3 0q.116 0 .116-.11v-2.778q0-.11-.116-.11v-.11h1.046v.11q-.049 0-.049.061 0 .05.122.171l1.757 1.824v-1.946q0-.11-.16-.11v-.11h.924v.11q-.116 0-.116.11v2.778q0 .11.116.11v.11h-.99v-.11q.079 0 .079-.055 0-.043-.098-.14l-1.866-1.946v2.031q0 .11.14.11v.11H9.01Zm6.233-.416q.288 0 .502-.049.214-.049.355-.171.14-.129.208-.337.073-.208.073-.526 0-.318-.073-.526-.068-.208-.208-.33-.141-.129-.355-.178-.214-.049-.502-.049h-.949V44.1zm.245-2.692q.336 0 .624.098.294.098.508.3.214.195.336.501.123.3.123.71t-.123.716q-.122.3-.336.502-.214.196-.508.294-.288.097-.624.097h-2.032v-.11q.14 0 .14-.11v-2.778q0-.11-.14-.11v-.11zm2.488 2.209.061.03q0 .055.025.098.043.074.165.147.129.067.288.123.165.055.342.091.178.03.318.03.105 0 .27-.011.165-.019.324-.068.16-.049.275-.134.117-.086.117-.227 0-.14-.11-.208-.105-.067-.282-.098-.171-.03-.398-.036-.22-.013-.453-.03-.232-.02-.458-.062-.22-.043-.398-.14-.172-.105-.282-.276-.104-.178-.104-.46 0-.189.086-.372.092-.184.275-.325.184-.14.465-.226.282-.092.661-.092.325 0 .563.049.239.049.41.104.178.055.294.104.122.049.202.049.085 0 .122-.037l.074.05-.423.764-.06-.024q-.013-.086-.05-.141-.049-.073-.165-.14-.11-.074-.263-.13-.153-.054-.33-.085-.178-.037-.355-.037-.135 0-.282.025-.14.018-.257.061-.116.043-.196.116-.073.068-.073.172 0 .146.104.22.11.073.281.11.178.037.398.049.227.012.46.03.232.019.452.068.226.043.398.147.177.098.281.269.11.171.11.447 0 .318-.171.52-.165.202-.416.318-.251.116-.545.16-.287.036-.538.036-.35 0-.588-.037-.232-.043-.391-.098-.153-.061-.245-.104-.092-.049-.16-.049-.042 0-.079.05l-.085-.05zm7.029.569h-.037q-.012-.006-.03-.006-.037 0-.178.073-.134.074-.349.165-.208.092-.477.16-.27.067-.563.067-.385 0-.74-.098t-.63-.3q-.27-.208-.429-.514-.159-.306-.159-.716 0-.404.16-.71.158-.312.427-.52.276-.208.63-.312.356-.104.741-.104.312 0 .563.05.257.048.447.103.19.055.3.104.11.05.134.05.03 0 .05-.032.024-.03.036-.048l.092.073-.478.74-.06-.042q0-.019-.007-.037 0-.019-.006-.043-.012-.067-.122-.135-.11-.073-.276-.128-.159-.055-.342-.092-.178-.037-.33-.037-.258 0-.496.074-.233.073-.41.214-.172.14-.276.349-.104.202-.104.465t.104.471q.104.202.276.343.177.14.41.214.238.073.495.073.196 0 .41-.043.214-.049.392-.116.177-.073.293-.159.123-.092.123-.171 0-.043-.025-.074l.086-.049.404.649zm2.72-.808-.513-1.138-.575 1.138zm-2.306 1.138q.08-.012.122-.08.05-.067.092-.152l1.132-2.38q.043-.08.074-.147.036-.068.036-.117 0-.06-.042-.085-.043-.025-.092-.037v-.11h1.034v.11q-.043.012-.086.037-.043.018-.043.085 0 .05.019.098.024.05.067.129l1.273 2.49q.03.067.08.098.054.03.122.061v.11H28.13v-.11q.024 0 .061-.018t.037-.055q0-.061-.05-.16l-.232-.452h-1.493l-.22.434q-.061.129-.061.184 0 .067.116.067v.11h-.869Zm6.435-1.762q.202 0 .343-.08.147-.08.147-.312 0-.232-.147-.312-.14-.08-.343-.08h-1.303v.784zm-2.227 1.872v-.11q.226 0 .226-.11v-2.778q0-.11-.226-.11v-.11h2.154q.587 0 .924.22.336.214.336.734t-.336.74q-.337.215-.924.215h-1.23v1.09q0 .11.196.11v.11zm3.914-.11q.16 0 .16-.11v-2.778q0-.11-.16-.11v-.11h1.016v.11q-.16 0-.16.11v2.778q0 .11.16.11v.11h-1.016zm1.877 0q.116 0 .116-.11v-2.778q0-.11-.116-.11v-.11h1.046v.11q-.049 0-.049.061 0 .05.122.171l1.757 1.824v-1.946q0-.11-.16-.11v-.11h.924v.11q-.116 0-.116.11v2.778q0 .11.116.11v.11h-.99v-.11q.079 0 .079-.055 0-.043-.098-.14l-1.866-1.946v2.031q0 .11.14.11v.11h-.905zm7.45-2.117-.122-.037q.013-.036.013-.073 0-.092-.117-.165-.11-.074-.287-.123-.172-.055-.38-.08-.202-.024-.385-.024-.227 0-.453.068-.22.06-.398.195-.171.135-.281.35-.104.213-.104.52 0 .3.104.52.11.214.281.348.178.135.398.202.226.061.453.061.349 0 .624-.055.281-.06.477-.128v-.526h-.783q-.086 0-.129.036-.042.037-.055.16h-.11v-.784h.11q.013.104.055.135.043.024.129.024h1.53v.11q-.123.019-.153.043-.03.025-.03.104v.692q0 .06.036.08l.086.042v.098q-.202.14-.429.232-.22.092-.453.147-.226.05-.459.062-.226.012-.446.012-.429 0-.783-.104-.35-.11-.6-.318-.251-.215-.392-.514-.134-.306-.134-.692 0-.385.134-.685.141-.306.392-.52.25-.215.6-.325.354-.116.783-.116.269 0 .514.037t.434.085q.19.043.312.086.129.037.16.037.054 0 .085-.025.03-.024.061-.042l.074.042zm4.194-.575q-.214 0-.367.104-.147.098-.147.312t.147.318q.153.098.367.098t.361-.098q.153-.104.153-.318 0-.214-.153-.312-.147-.104-.36-.104zm-.795 1.78q0 .154.067.264.067.11.178.177.11.067.238.098.135.03.263.03.123 0 .233-.036.116-.043.208-.104.092-.061.147-.135.061-.08.073-.159-.092-.128-.134-.25-.043-.13-.098-.227-.055-.104-.147-.165-.092-.062-.282-.062-.128 0-.263.031-.128.03-.238.098-.11.067-.178.177-.067.104-.067.264zm2.845 1.04q-.226 0-.398-.03-.165-.037-.293-.098-.123-.06-.214-.134-.086-.08-.16-.16-.146.123-.275.209-.122.08-.257.134-.128.05-.281.061-.147.019-.343.019-.22 0-.453-.05-.226-.048-.416-.164-.183-.117-.306-.3-.122-.184-.122-.44 0-.203.06-.35.068-.153.178-.263.11-.11.264-.183.152-.074.33-.123v-.012q-.19-.061-.33-.214-.135-.16-.135-.367 0-.214.098-.361.104-.153.257-.251.159-.104.355-.147.202-.049.391-.049.196 0 .392.05.196.042.349.146.159.098.257.25.104.148.104.362t-.123.373q-.116.153-.257.202.08.055.129.135.049.073.086.153.036.073.067.146.03.068.073.11.092-.165.214-.305.123-.141.245-.245.123-.11.22-.171.105-.068.153-.08.031-.012.056-.024.024-.019.024-.043h.061v.942h-.061q-.012-.037-.043-.086-.024-.049-.092-.049-.073 0-.14.062-.068.06-.123.153-.055.085-.098.177-.042.092-.06.153.085.11.201.202.122.086.227.092.085 0 .104-.055.024-.055.024-.123h.061zm2.585-.128q.116 0 .116-.11v-2.778q0-.11-.116-.11v-.11h1.046v.11q-.049 0-.049.061 0 .05.122.171l1.757 1.824v-1.946q0-.11-.16-.11v-.11h.924v.11q-.116 0-.116.11v2.778q0 .11.116.11v.11h-.99v-.11q.079 0 .079-.055 0-.043-.098-.14l-1.867-1.946v2.031q0 .11.141.11v.11h-.905zm5.4-2.998q-.134 0-.134.11v1.836q0 .385.245.532.25.14.728.14.477 0 .722-.14.25-.147.25-.532v-1.836q0-.11-.183-.11v-.11h.98v.11q-.147 0-.147.11v1.805q0 .361-.105.6-.104.232-.312.373-.208.14-.52.19-.306.049-.71.049-.403 0-.715-.05-.306-.048-.514-.189-.208-.14-.313-.373-.104-.239-.104-.6v-1.805q0-.11-.17-.11v-.11h1.003zm5.224 1.322q.22 0 .367-.03.147-.038.233-.099.086-.061.122-.14.037-.086.037-.184t-.037-.178q-.036-.085-.122-.146-.086-.062-.233-.092-.146-.037-.367-.037h-1.058v.906zm.16-1.432q.293 0 .532.055.238.049.41.165.171.11.263.294.092.177.092.44 0 .404-.239.618-.239.215-.642.288l.813 1.163q.043.06.098.073.061.012.11.012v.11h-1.144v-.11q.055 0 .092-.018.043-.018.043-.049 0-.03-.025-.067-.024-.043-.073-.11l-.673-.955h-.875v1.09q0 .054.036.085.043.024.147.024v.11H60.39v-.11q.177 0 .177-.11v-2.778q0-.11-.177-.11v-.11zm2.39 2.209.061.03q0 .055.025.098.042.074.165.147.128.067.287.123.166.055.343.091.178.03.318.03.104 0 .27-.011.165-.019.324-.068t.275-.134q.116-.086.116-.227 0-.14-.11-.208-.104-.067-.281-.098-.171-.03-.398-.036-.22-.013-.453-.03-.232-.02-.459-.062-.22-.043-.397-.14-.172-.105-.282-.276-.104-.178-.104-.46 0-.189.086-.372.092-.184.275-.325.184-.14.465-.226.282-.092.661-.092.324 0 .563.049.239.049.41.104.177.055.294.104.122.049.202.049.085 0 .122-.037l.073.05-.422.764-.061-.024q-.012-.086-.049-.141-.049-.073-.165-.14-.11-.074-.263-.13-.153-.054-.33-.085-.178-.037-.356-.037-.134 0-.281.025-.14.018-.257.061-.116.043-.196.116-.073.068-.073.172 0 .146.104.22.11.073.281.11.178.037.398.049.226.012.459.03.232.019.453.068.226.043.397.147.178.098.282.269.11.171.11.447 0 .318-.171.52-.166.202-.416.318-.251.116-.545.16-.288.036-.538.036-.35 0-.588-.037-.232-.043-.391-.098-.153-.061-.245-.104-.092-.049-.16-.049-.042 0-.079.05l-.086-.05zm6.655-1.548q0-.068-.055-.098-.049-.037-.177-.037h-1.983v.759h1.2q.122 0 .19-.03.067-.037.067-.178h.11v.954h-.11q0-.14-.068-.177-.067-.043-.19-.043h-1.199v.844h2.044q.092 0 .147-.042.061-.043.061-.117h.11v.839h-.11q0-.092-.061-.104-.055-.013-.147-.013h-2.851v-.11q.043 0 .073-.024.037-.03.037-.086v-2.778q0-.055-.037-.08-.03-.03-.073-.03v-.11h2.79q.128 0 .177-.037.055-.043.055-.11h.11v.808zm2.746.77q.22 0 .367-.03.147-.037.233-.098.085-.061.122-.14.037-.086.037-.184t-.037-.178q-.037-.085-.122-.146-.086-.062-.233-.092-.147-.037-.367-.037h-1.059v.906zm.159-1.431q.294 0 .532.055.239.049.41.165.172.11.263.294.092.177.092.44 0 .404-.238.618-.239.215-.643.288l.814 1.163q.043.06.098.073.061.012.11.012v.11h-1.144v-.11q.055 0 .092-.018.042-.018.042-.049 0-.03-.024-.067-.025-.043-.074-.11l-.673-.955h-.875v1.09q0 .054.037.085.043.024.147.024v.11h-1.059v-.11q.178 0 .178-.11v-2.778q0-.11-.178-.11v-.11zm2.966 0v.11q-.055 0-.104.018-.05.013-.05.074 0 .036.086.177.092.135.209.312l.25.355q.129.184.208.312l.716-.985.08-.116q.03-.043.03-.08 0-.043-.06-.055-.056-.012-.105-.012v-.11h1.071v.11q-.049 0-.092.012-.042.006-.091.043-.043.03-.098.098-.05.061-.123.171l-1.04 1.475v1.09q0 .11.14.11v.11h-.966v-.11q.055 0 .092-.025.036-.03.036-.086v-1.09l-1.18-1.651q-.043-.061-.135-.104-.086-.043-.147-.043v-.11zm2.507 3.928q.091-.024.208-.098.116-.067.208-.165.098-.092.159-.202.061-.11.049-.22-.013-.025-.068-.03-.055-.007-.104-.007-.153 0-.269-.098-.11-.104-.11-.287 0-.178.122-.306.129-.129.288-.129.245 0 .367.178.129.177.129.434 0 .196-.086.373-.08.184-.214.337-.135.153-.312.263-.178.11-.367.153zm3.502-.82q.159 0 .159-.11v-2.778q0-.11-.16-.11v-.11h1.017v.11q-.16 0-.16.11v2.778q0 .11.16.11v.11h-1.016zm1.876 0q.117 0 .117-.11v-2.778q0-.11-.117-.11v-.11h1.047v.11q-.05 0-.05.061 0 .05.123.171l1.756 1.824v-1.946q0-.11-.159-.11v-.11h.924v.11q-.116 0-.116.11v2.778q0 .11.116.11v.11h-.991v-.11q.08 0 .08-.055 0-.043-.098-.14l-1.867-1.946v2.031q0 .11.141.11v.11h-.906zm7.916-.33h-.036q-.013-.006-.03-.006-.038 0-.178.073-.135.074-.35.165-.207.092-.476.16-.27.067-.563.067-.386 0-.74-.098-.356-.098-.631-.3-.27-.208-.428-.514-.16-.306-.16-.716 0-.404.16-.71.159-.312.428-.52.275-.208.63-.312.355-.104.74-.104.313 0 .564.05.257.048.446.103.19.055.3.104.11.05.135.05.03 0 .049-.032.024-.03.036-.048l.092.073-.477.74-.061-.042q0-.019-.006-.037 0-.019-.007-.043-.012-.067-.122-.135-.11-.073-.275-.128-.16-.055-.343-.092-.177-.037-.33-.037-.257 0-.496.074-.233.073-.41.214-.171.14-.275.349-.104.202-.104.465t.104.471q.104.202.275.343.177.14.41.214.239.073.496.073.195 0 .41-.043.214-.049.391-.116.178-.073.294-.159.122-.092.122-.171 0-.043-.024-.074l.086-.049.403.649zm.782.043q0-.178.128-.306.129-.129.306-.129.178 0 .306.129.129.128.129.306 0 .177-.129.3-.128.116-.306.116-.177 0-.306-.116-.128-.123-.128-.3z" style="fill:#e5e5e5"></path></svg>