<svg xmlns="http://www.w3.org/2000/svg" width="500" height="100" viewBox="0 0 132.291 26.458" xml:space="preserve"><path d="M19.068.424c.288-.31 1.155-1.224 2.188-.734.203 1.685-.45 3.101-1.195 4.55.642-.11 1.441-.384 2.057-.136-.02 1.341-.572 2.559-1.126 3.777-.053.351.085.51.393.585.308.074.753-.118 1.188-.424.905-.699 1.85-1.392 2.21-1.551.362-.16 1.107-.315 1.53-.255.352.718.27 1.821.212 2.559l.187-.395c.565-1.154 1.47-1.995 2.522-2.574.659-.41.813.507.853.729.04.222.007.615.125.755.655-.325 1.059-1.07 1.67-1.555.644-.522 1.993-.964 2.69-.605.24.935-.379 1.907-.617 2.755l.246-.064c1.36-.444 2.74-.017 3.69.912.254.22.314.593.19.842-1.241 1.633-2.963-.025-3.863.54-.661.367-1.472.43-1.472.43-.042.144.428.304.305.825-.25.373-.896.459-1.05.623.186.282 1.237.286.993.988-.395.587-1.82 1.996-2.464 2.608 0 0 .35-.044.609-.086a3.86 3.86 0 0 0 .506-.106c.104-.032 1.498-.286 2.04.031.617.36-.463 1.892-.463 1.892s1.75-.242 2.543-.034c.793.21 1.945.983 1.992 1.29.048.306-.81.866-1.588 1.02-1.039.2-1.81.013-1.81.013.445 1.178.126 1.813.06 1.951-.065.138-.388.488-.783.494-.395.005-1.282-.773-1.282-.773s-.338.688-.645.672c-.28-.014-1.402-.519-1.896-.884l.195.227c1.044 1.267 1.075 3.896 1.082 4.215-.054.747-.672.681-1.21.773l-1.017.07s-1.03.04-1.94-.1c-.91-.142-3.604-1.202-3.604-1.202s-.589.122-1.356.085c-.769-.04-1.892-.31-2.31-.199-.419.11-2.206.137-2.974.098-.768-.037-2.586-.644-2.586-.644-1.074.779-5.187 1.993-5.933 2.12-.747.127-1.76.416-2.162.483-.402.07-.604-.428-.624-.543-.118-1.295.496-2.86 1.045-3.964-.456.352-1.064.573-1.228.62-1.239.352-.917-.559-.917-.559s-1.003.758-1.222.782c-.38.04-.677-.286-.77-.458-.095-.171-.393-.738.005-1.89 0 0-.74.2-1.752.034-.756-.128-1.602-.648-1.563-.945.038-.298.97-1.106 1.894-1.3.776-.164 2.464-.034 2.464-.034s-1.065-1.424-.5-1.82c.495-.347 1.416-.25 1.884-.171l-.022-.038-.369-.64c-.152-.297-.337-.737-.26-1.164.266-.753 1.048-.878 1.639-1.15-.54-.258-1.722-.627-1.786-.843-.079-.466.398-.621.665-.902 0 0-2.155-.452-2.325-.505-.17-.053-.441-.213-.321-.484.12-.27.42-.436.42-.436-.884-.445-2.04-.249-2.674-1.165-.2-.595.503-.93.796-1.058.293-.129 2.332-.281 3.49-.277.085-.51-.234-1.434.467-1.785.765 0 1.878.625 2.503 1.676.237-.242.237-.816.603-.928.346.102 1.616.966 2.197 1.661-.078-.52-.277-1.144-.067-1.758.563-.173 1.559-.013 2.325.07l.174.02c-.565-1.194-.968-2.61-.216-3.63.85-.34 2.03.134 2.827.546l.169.06c-.085-1.03-.595-2.146.145-3.37.285-.08.545-.009.802.147 0 0 1.132.685 1.665 1.237.346.356.648.01.765-.181.117-.192.255-.775.742-1.446" style="fill:#224333" transform="translate(.992 .435) scale(.96305)"></path><path d="M109.052 148.996c.092.317.147.602.073.903l-.205.25c-.094-.088-.059-.304-.131-.429-.173-.63-.615-1.346-1.343-1.478-.317-.13-.695-.013-1.008-.157l.027-.116c.949.043 1.949.2 2.587 1.027m-3.186-.704c-.66.119-1.344.923-1.52 1.22-.176.297-.486 1.305-.093 1.886-.564-.167-.853-.712-.913-1.266.118-.496.524-.879.886-1.208.463-.4 1.024-.677 1.64-.632" style="fill:#eb222f" transform="translate(-239.99 -349.066) scale(2.4302)"></path><path d="M108.014 149.126c-.029.214-.115.399-.286.513-.258-.447-.847-.713-1.34-.735-.2.021-.402-.016-.582.08-.142-.107-.01-.323.099-.344.73-.144 1.552-.1 2.11.486m-2.57-.193c-.005.282-.141.6-.012.937.14.67.674 1.083 1.248 1.423-.51-.11-1.055-.444-1.452-.904-.24-.278-.292-.742-.15-1.066.1-.175.208-.31.366-.39m1.295.389c.179.045.03.178-.026.24-.148.05-.09-.149-.213-.18a.868.868 0 0 0-.663-.057c.119-.145.526-.108.64-.084.113.025.261.08.261.08s-.076-.019 0 0" style="display:inline;fill:#eb222f" transform="translate(-239.99 -349.066) scale(2.4302)"></path><path d="M106.361 149.563c.07.02.086.116.073.157a.607.607 0 0 1-.567-.034c-.045-.026-.122-.058-.066-.113.177-.076.4-.107.56-.01m-1.633.277c.193 1.137 1.38 1.773 2.37 1.867.2.019.38.04.59.005-.589.583-1.61.423-2.306.175-.396-.215-.71-.566-.78-1.02-.058-.342-.088-.75.126-1.027m2.514-.1c-.06.422-.533.522-.897.65-.196-.04-.435-.176-.472-.392.314 0 .812-.032 1.038-.397.13-.048.266.065.33.14m1.086-.293a2.413 2.413 0 0 1-.562.944c-.237.248-.537.445-.895.454l-.252-.174c.158-.19.475-.211.684-.365.404-.205.707-.498.989-.879.008.005.017.023.036.02m.118 3.463c-.244.194-.328.253-.588.347-.193.071-.402.1-.603.03.274-.392.725-.658.924-1.11.41-.352.678-.9.812-1.425.013-.225.333-.417.36-.657l.113-.6c.118-.08.219.054.27.13.02.768-.064 1.696-.288 2.234-.224.538-1 1.05-1 1.05m-.179-2.754c.118.424.01.782-.225 1.175-.17.042-.73-.084-.742-.096-.065-.09.364-.291.676-.75.101-.147.17-.23.291-.33m-4.001 1.659c.72.623 1.612.831 2.513.862l.694-.144c-.563.377-1.254.965-2 .62-.557-.16-1.257-.228-1.61-.707-.16-.215-.325-.639-.251-.978.209.076.42.275.654.347" style="fill:#eb222f" transform="translate(-239.99 -349.066) scale(2.4302)"></path><path d="M107.292 143.996c.087.631-.163 1.354-.734 1.732.078-.393.567-.82.628-1.277.014-.103-.112-.128-.151-.046-.121.25-.168.519-.367.696-.01-.443.171-.957.624-1.105m-1.334 1.16c-.234.025-.389-.434-.482-.377-.054.02-.008.103-.008.103.13.272.288.59.2.918-.289-.317-.415-.793-.333-1.238.312.032.53.322.623.594m.425.196c-.222.77-.858 1.46-.677 2.331-.043.054-.141.053-.176-.035-.128-.624.084-1.018.323-1.558.12-.268.465-.74.454-1.19.12.125.112.3.076.452m-1.153.908c.064.107.067.283-.002.373-.411-.099-.756-.818-.872-.748-.081.035.05.212.095.292.238.417.445.852.674 1.278-.546-.444-.953-1.075-1.062-1.756 0 0-.035-.164.082-.17.407 0 .88.367 1.085.731m-3.322 1.236c-.278.021-.484-.495-.602-.466-.076.008-.007.19.038.26l.379.499c-.114.074-.29-.095-.345-.177-.159-.24-.356-.56-.249-.854.429.019.51.502.78.738m5.681-1.589c-.138.69-.579 1.608-1.358 1.759.19-.548.694-.922 1.048-1.38 0 0 .069-.078-.012-.07-.08.007-.539.335-.794.599-.168.174-.267.352-.456.514-.11-.118.015-.366.059-.428.356-.518.787-.98 1.45-1.089l.085-.01-.023.104m-6.889 1.559a3.746 3.746 0 0 0-.844-.027c-.072.017-.091.035-.065.07.128.123.645.034 1.03.283.066.044.01.063.01.063-.467.067-.976-.09-1.367-.35.35-.281.87-.232 1.236-.038m2.8 1.316c-.472-.326-.825-1.12-.935-1.149-.086-.031-.104.077-.087.139l.231.596c-.4-.202-.424-.734-.393-1.13.643.29.892.986 1.183 1.544m-2.136-.756c-.104.181-.451-.014-.448.168.022.123.523.003.745.155a1.187 1.187 0 0 1-1.123-.183c.191-.222.575-.196.826-.14m11.237-1.838c-.024.404-.337.83-.729.955-.025.004-.06.029-.067-.015-.014-.1.55-.516.518-.65-.028-.077-.107-.054-.145-.002-.23.3-.507.596-.804.817.265-.45.468-1.045 1.147-1.11a.166.166 0 0 1 .08.006m-1.852.385c.112.387.136.919-.2 1.204-.102-.256.095-.756-.009-.782-.03-.016-.064.01-.064.01-.167.435-.243.95-.52 1.292-.064-.382.064-.775.224-1.11.095-.199.281-.551.57-.614m-8.106 2.171c-.196.157-.794-.084-.786.113.003.088.168.102.236.117.345.066.703.136 1.032.303-.478-.037-1.005-.026-1.463-.256-.137-.082-.273-.15-.352-.268.43-.164.94-.204 1.333-.009m11.217-1.331c.057.074.069.146.05.188-.109.135-.853.053-1.178-.166 0 0-.056-.035-.007-.045.048-.01.791.13.825.122.034-.01.09-.056 0-.106-.091-.05-.552-.062-.74-.247.382-.058.76-.024 1.05.254m-1.261.279c-.361.108-.738.073-1.078-.033.18-.096.562-.008.594-.01.03 0 .116-.014.053-.09-.073-.088-.287-.053-.438-.093.13-.087.362-.102.464-.078.103.023.351.084.405.304m-.803.554c-.444.383-1.114.327-1.685.351.228-.392 1.095-.202 1.182-.357.04-.078-.077-.1-.168-.096-.083.004-.385.079-.558.023.389-.216.905-.29 1.23.08m-12.636 3.542c.327.237.856.265 1.2.042.02-.017.039-.034.032-.062-.272-.046-.66.12-.831-.012-.044-.032-.013-.104.09-.113.377-.032.781-.014 1.14-.104-.516-.08-1.155-.152-1.55.16a.883.883 0 0 0-.08.09m1.348-.929c.23.332.626.688 1.06.609-.134-.242-.575-.397-.6-.503-.004-.02-.016-.04.049-.043.064-.002.89.414 1.327.417-.253-.292-.641-.432-1-.53-.278-.078-.603-.133-.835.05m-.186 1.881c.312-.21.526-.525.658-.855-.188.079-.317.43-.383.453-.038.013-.057.015-.09-.015-.045-.1.126-.256.192-.398a.656.656 0 0 0-.355.309c-.033.077-.13.361-.022.506m.815-.009c.578-.102.959-.655 1.34-1.081-.447-.072-.724.657-1.025.687-.115.012-.01-.148.032-.19.128-.13.305-.248.371-.417-.413.164-.798.515-.718 1.001m12.569-1.526c-.331.254-.875.298-1.238.077-.02-.017-.04-.034-.034-.063.279-.055.588.118.857-.035.04-.023.021-.098-.13-.095a4.865 4.865 0 0 1-1.147-.094c.532-.098 1.24-.155 1.642.145.044.034.05.066.05.066m-1.419-.92c-.228.348-.626.727-1.076.657.131-.253.463-.29.605-.536 0 0 .03-.067-.052-.043-.081.025-.906.453-1.358.468.253-.308.65-.464 1.017-.576.285-.087.62-.153.863.03m.245 1.935c-.328-.208-.557-.527-.703-.863.195.076.369.428.408.457.022.016.08.056.094-.018.002-.163-.14-.261-.21-.406.155.042.33.236.375.309.044.073.143.37.036.521m-.842.014c-.598-.089-1.008-.649-1.413-1.078.46-.087.88.701 1.078.68.107-.017.009-.14-.039-.195-.128-.146-.321-.247-.394-.42.43.158.838.51.768 1.013m-6.82-4.342c-.02-.01-.024.011-.042.02-.11-.23-.592-.575-.666-.495-.074.08.353.385.347.66-.284-.252-.707-.832-.805-.778-.098.053-.045.127.097.311.282.312.313.6.313.6-.187-.02-.286-.454-.413-.388s.202.385.211.592c-.328-.317-.555-.887-.445-1.356.578-.065 1.14.363 1.403.834m4.364-.986c.167.07.087 1.2-.099 1.35-.05.019-.099-.01-.122-.071-.007-.195.194-.51.108-.562-.086-.05-.198.296-.298.444-.113-.008-.108-.148-.088-.247.03-.15.4-.596.304-.651-.097-.055-.426.47-.637.733-.054-.174.233-.468.115-.522-.075-.043-.295.271-.41.435.07-.43.54-.714.94-.898.11-.051.154-.026.187-.012 0 0-.099-.04 0 0m-6.453 2.661c-.245.079-.725.033-.722.142.002.11.523.003.73.185-.392.097-.934-.105-.973.04-.02.073.096.098.147.1.3.008.57.085.831.231-.271.02-.788-.11-.809 0-.02.108.64.238.95.369-.63-.011-1.458-.152-1.845-.78.473-.368 1.15-.39 1.69-.286m9.014-.559c.009.078-.183.32-.308.458-.246.273-.508.55-.915.547.1-.186.529-.347.47-.426-.058-.079-.466.139-.52.134-.052-.005-.059-.04-.014-.089.044-.048.925-.43.942-.46.016-.03.033-.087-.099-.075-.13.011-.925.303-1.013.302-.063-.001-.065-.039-.06-.075.032-.13.576-.155.549-.242-.029-.088-.543 0-.636-.005-.093-.004-.042-.051-.01-.064.034-.028.882-.278 1.614-.006m-8.7 2.952s.017.016.01.064c-.01.102-.65.443-.77.85 0 0 .01.062.07.027.058-.034.517-.415.821-.551 0 0 .111-.02.058.075-.052.095-.835.619-1.153 1.026 0 0-.013.045.01.063.025.018.082.03.147-.024.064-.055.903-.689 1.188-.705.071.006.123.024.118.072-.015.095-.577.346-.805.62.001.045-.004.078.056.095.059.017.68-.497.983-.409.18.039.25.2.25.2-.642.383-1.696.598-2.389.754-.019-.769.442-1.786 1.162-2.207.062-.036.21-.107.244.05m7.577.417c.262.399.432.895.319 1.424-.79.082-1.63.191-2.319-.34-.084-.064.08-.304.214-.239.379.184.888.402 1.037.33.07-.036.038-.12-.001-.158l-.61-.394a.1.1 0 0 1 .043-.137c.091-.04.51.188.76.354l.37.264a.106.106 0 0 0 .105-.004c.098-.093-.103-.367-.245-.502-.142-.136-.566-.427-.566-.427s-.046-.043.008-.067c.053-.023.476.228.712.344.09-.008.071-.108.038-.162-.196-.322-.657-.328-.49-.728.251.016.475.259.625.443" style="fill:#fff" transform="translate(-239.99 -349.066) scale(2.4302)"></path><path style="fill:#fff" d="m412.926-11.963.144 2.989h1.082l.143-2.99zm-13.999.949c0 .293-.21.502-.797.502h-9.567v.377c.19 0 .379.128.379.38v9.523c0 .254-.19.378-.38.378v.378h9.777c.42 0 .714.042.714.464h.378V-1.95h-.378c0 .333-.294.543-.712.543h-7.008V-4.3h4.11c.547 0 .883.125.883.755h.377V-6.82h-.377c0 .632-.336.714-.883.714h-4.11v-2.6h6.797c.587 0 .798.167.798.46h.377v-2.768zm21.098.377c-3.481 0-5.097 1.741-5.097 3.483 0 5.14 8.518 1.93 8.518 4.49 0 1.277-2.456 1.51-3.379 1.51-1.318 0-3.398-.651-3.817-1.343a.622.622 0 0 1-.085-.336l-.207-.105L414.802-.4l.295.167c.063-.083.164-.167.272-.167.628 0 1.51 1.049 4.74 1.049 2.266 0 5.728-.714 5.728-3.608 0-5.034-8.517-1.931-8.517-4.595 0-.923 1.532-1.28 2.77-1.28 1.614 0 3.377.693 3.818 1.343a1.087 1.087 0 0 1 .167.483l.21.084 1.448-2.622-.253-.17c-.083.086-.209.127-.419.127-.714 0-2.12-1.05-5.036-1.05zm-82.632.125v.377c.21 0 .398.128.398.38v9.523c0 .254-.188.378-.398.378v.378h3.168V.146c-.189 0-.378-.125-.378-.378v-3.943h6.756v3.943c0 .254-.19.378-.462.378v.378h3.231V.146c-.19 0-.378-.125-.378-.378v-9.523c0-.252.189-.38.378-.38v-.377h-3.23v.377c.271 0 .46.128.46.38v3.567h-6.755v-3.567c0-.252.19-.38.378-.38v-.377zm17.823 0v.377c.208.043.461.149.461.42 0 .21-.19.547-.378.903L351.42-.65c-.19.398-.379.755-.736.796v.378h2.98V.146c-.21 0-.398-.104-.398-.23s.082-.358.21-.63l.755-1.49h5.119l.796 1.555a1.18 1.18 0 0 1 .167.544c0 .169-.228.25-.334.25v.379h3.692V.146c-.314-.125-.545-.252-.692-.545l-4.364-8.54c-.19-.355-.294-.565-.294-.776 0-.292.253-.377.441-.42v-.377zm9.257 0v.377c.44 0 .63.128.63.38v9.523c0 .254-.19.378-.63.378v.378h9.987c.42 0 .714.042.714.464h.376V-1.95h-.376c0 .333-.294.542-.713.542h-6.967v-8.348c0-.252.19-.38.588-.38v-.377zm12.065 0v.377c.44 0 .63.128.63.38v9.523c0 .254-.19.378-.63.378v.378h9.986c.42 0 .714.042.714.464h.377V-1.95h-.377c0 .333-.294.542-.715.542h-6.964v-8.348c0-.252.19-.38.588-.38v-.377zm23.994 0v.377c.42 0 .61.128.61.38v9.523c0 .254-.19.378-.61.378v.378h3.63V.146c-.483 0-.63-.125-.63-.378v-3.733h3.002l2.307 3.272c.21.294.336.461.336.61 0 .125-.208.229-.462.229v.378h3.924V.146c-.23 0-.525-.02-.714-.294l-2.79-3.986c1.847-.335 3.022-1.278 3.022-3.103 0-2.392-1.763-3.275-4.45-3.275zm3 1.806h3.63c2.015 0 2.602.67 2.602 1.552s-.587 1.552-2.601 1.552h-3.63zM356.83-7.657l1.762 3.902h-3.735z" transform="translate(-315.762 16.473) scale(1.05193)"></path><path style="fill:#fff" d="M340.363 6.22q0-.088-.058-.1-.053-.012-.14-.012h-2.772v-.104q.174 0 .174-.105V3.255q0-.105-.174-.105v-.105h1.001v.105q-.163 0-.163.105v2.318h1.934q.087 0 .14-.041.058-.04.058-.11h.105v.797zm2.32-1.3-.49-1.083-.547 1.083zm-2.196 1.084q.076-.012.116-.076.047-.064.088-.146l1.077-2.265q.041-.076.07-.14.035-.064.035-.11 0-.06-.04-.082-.041-.024-.088-.035v-.105h.984v.105q-.04.011-.081.035-.041.017-.041.081 0 .047.017.093l.065.123 1.211 2.37q.03.064.076.093.052.03.116.059v.104h-1.025v-.104q.023 0 .058-.018.035-.017.035-.052 0-.059-.046-.152l-.222-.43h-1.42l-.21.413q-.059.122-.059.175 0 .064.111.064v.104h-.827zm4.079 0q.11 0 .11-.105V3.255q0-.105-.11-.105v-.105h.996v.105q-.047 0-.047.058 0 .047.116.163l1.672 1.736V3.255q0-.105-.151-.105v-.105h.88v.105q-.112 0-.112.105v2.644q0 .105.111.105v.104h-.943v-.104q.075 0 .075-.053 0-.04-.093-.134l-1.776-1.852V5.9q0 .105.134.105v.104h-.862zm5.919-.396q.274 0 .477-.047.204-.047.338-.163.134-.122.198-.32.07-.198.07-.501t-.07-.501q-.064-.198-.198-.315-.134-.122-.338-.169-.203-.046-.477-.046h-.903v2.062zm.233-2.563q.32 0 .594.093.28.093.483.285.204.187.32.478.117.285.117.676 0 .39-.116.681-.117.285-.32.478-.205.186-.484.28-.274.092-.594.092h-1.934v-.104q.134 0 .134-.105V3.255q0-.105-.134-.105v-.105Zm2.354 2.102.059.03q0 .052.023.093.04.07.157.14.122.064.274.116.157.052.326.087.169.03.303.03.099 0 .256-.012.157-.018.309-.064.151-.047.262-.128.11-.082.11-.216t-.104-.198q-.1-.064-.268-.093-.163-.03-.379-.035-.21-.012-.43-.03-.222-.017-.437-.057-.21-.041-.38-.134-.162-.1-.267-.262-.099-.17-.099-.437 0-.18.082-.356.087-.174.262-.308.174-.134.442-.216.268-.087.63-.087.308 0 .535.047.227.046.39.099.17.052.28.099.116.046.192.046.082 0 .117-.035l.07.047-.402.728-.059-.023q-.011-.082-.046-.134-.047-.07-.157-.134-.105-.07-.25-.123-.146-.052-.315-.081-.17-.035-.338-.035-.128 0-.268.023-.134.018-.245.058-.11.041-.186.111-.07.064-.07.163 0 .14.099.21.105.07.268.105.169.035.378.046.216.012.437.03.222.017.431.063.216.041.379.14.169.093.268.256.105.164.105.426 0 .302-.163.495-.158.192-.396.303-.24.11-.519.151-.274.035-.512.035-.332 0-.56-.035-.22-.04-.372-.093-.146-.058-.233-.1-.088-.046-.152-.046-.04 0-.075.047l-.082-.047zm6.677.542h-.035q-.012-.006-.03-.006-.034 0-.168.07-.128.07-.332.157-.198.088-.454.152-.257.064-.536.064-.367 0-.705-.093-.338-.093-.6-.286-.256-.198-.408-.489-.151-.291-.151-.681 0-.385.151-.676.152-.297.408-.495.262-.198.6-.297.338-.1.705-.1.297 0 .536.048.244.046.425.099.18.052.285.099.105.046.128.046.03 0 .047-.029l.035-.047.087.07-.454.705-.058-.04q0-.018-.006-.036 0-.017-.006-.04-.012-.065-.117-.129-.105-.07-.262-.122-.151-.052-.326-.087-.169-.035-.315-.035-.244 0-.471.07-.222.07-.39.204-.164.134-.263.332-.099.192-.099.442t.1.449q.098.192.261.326.17.134.39.204.228.07.472.07.187 0 .39-.041.204-.047.373-.11.17-.07.28-.152.116-.088.116-.163 0-.041-.023-.07l.082-.047.384.617zm2.576-.769-.49-1.083-.547 1.083Zm-2.196 1.084q.076-.012.116-.076.047-.064.088-.146l1.077-2.265q.041-.076.07-.14.035-.064.035-.11 0-.06-.04-.082-.041-.024-.088-.035v-.105h.984v.105q-.04.011-.081.035-.041.017-.041.081 0 .047.017.093l.065.123 1.211 2.37q.03.064.076.093.052.03.116.059v.104h-1.025v-.104q.023 0 .058-.018.035-.017.035-.052 0-.059-.046-.152l-.222-.43h-1.42l-.21.413q-.059.122-.059.175 0 .064.111.064v.104h-.827zm6.111-1.678q.193 0 .326-.076.14-.075.14-.297 0-.22-.14-.297-.133-.075-.326-.075H365v.745zm-2.12 1.782v-.104q.216 0 .216-.105V3.255q0-.105-.216-.105v-.105h2.05q.56 0 .88.21.32.203.32.698 0 .496-.32.705-.32.204-.88.204H365v1.037q0 .105.186.105v.104Zm3.712-.104q.151 0 .151-.105V3.255q0-.105-.151-.105v-.105h.967v.105q-.152 0-.152.105v2.644q0 .105.152.105v.104h-.967zm1.772 0q.11 0 .11-.105V3.255q0-.105-.11-.105v-.105h.996v.105q-.046 0-.046.058 0 .047.116.163l1.672 1.736V3.255q0-.105-.152-.105v-.105h.88v.105q-.111 0-.111.105v2.644q0 .105.11.105v.104h-.943v-.104q.076 0 .076-.053 0-.04-.093-.134l-1.777-1.852V5.9q0 .105.134.105v.104h-.862zm7.078-2.016-.116-.035q.012-.035.012-.07 0-.087-.111-.157-.105-.07-.274-.116-.163-.053-.361-.076-.192-.023-.367-.023-.215 0-.43.064-.21.058-.38.186-.163.128-.267.332-.1.204-.1.495 0 .286.1.495.104.204.267.332.17.128.38.193.215.058.43.058.332 0 .594-.053.268-.058.454-.122v-.5h-.745q-.082 0-.122.034-.041.035-.053.152h-.105V4.43h.105q.012.099.053.128.04.023.122.023h1.456v.105q-.116.018-.146.041-.029.023-.029.1v.657q0 .058.035.076l.082.04v.094q-.192.134-.408.221-.21.088-.431.14-.215.047-.437.058-.215.012-.425.012-.408 0-.746-.1-.331-.104-.57-.302-.24-.204-.373-.49-.128-.29-.128-.657 0-.367.128-.653.134-.29.373-.495.239-.204.57-.308.338-.111.746-.111.256 0 .49.035.232.035.413.081.18.041.297.082.122.035.151.035.053 0 .082-.023.029-.024.058-.041l.07.04zm3.964-.547q-.204 0-.35.099-.139.093-.139.297t.14.303q.145.093.35.093.203 0 .343-.093.145-.1.145-.303 0-.204-.145-.297-.14-.1-.344-.1zm-.757 1.695q0 .145.064.25.064.105.17.17.104.063.226.092.128.03.25.03.117 0 .222-.036.11-.04.198-.099.087-.058.14-.128.058-.075.07-.151-.088-.122-.128-.239-.041-.122-.094-.215-.052-.1-.14-.158-.087-.058-.267-.058-.123 0-.25.03-.123.028-.228.092-.105.064-.169.17-.064.098-.064.25zm2.708.99q-.215 0-.378-.03-.157-.034-.28-.092-.116-.059-.204-.129-.081-.075-.151-.151-.14.117-.262.198-.117.076-.245.128-.122.047-.268.058-.14.018-.326.018-.21 0-.43-.047-.216-.046-.397-.157-.175-.11-.291-.285-.117-.175-.117-.42 0-.192.059-.332.064-.145.169-.25.104-.105.25-.175.146-.07.314-.116v-.012q-.18-.058-.314-.204-.128-.151-.128-.35 0-.203.093-.343.099-.146.245-.239.151-.099.337-.14.193-.046.373-.046.187 0 .373.046.186.041.332.14.151.093.245.24.099.139.099.343 0 .204-.117.355-.11.146-.245.192.076.053.123.128.046.07.081.146.035.07.064.14.03.064.07.105.088-.158.204-.292.117-.134.233-.233.117-.104.21-.163.099-.064.145-.075.03-.012.053-.024.023-.017.023-.04h.058v.896h-.058q-.012-.034-.04-.081-.024-.047-.088-.047-.07 0-.134.059-.064.058-.117.145-.052.082-.093.17-.04.086-.058.145.082.105.192.192.117.081.216.087.081 0 .099-.052.023-.053.023-.117h.058zm2.432-.122q.111 0 .111-.105V3.255q0-.105-.11-.105v-.105h.995v.105q-.046 0-.046.058 0 .047.116.163l1.672 1.736V3.255q0-.105-.152-.105v-.105h.88v.105q-.11 0-.11.105v2.644q0 .105.11.105v.104h-.944v-.104q.076 0 .076-.053 0-.04-.093-.134l-1.777-1.852V5.9q0 .105.134.105v.104h-.862zm5.127-2.854q-.128 0-.128.105v1.747q0 .367.233.507.24.133.693.133.455 0 .688-.133.238-.14.238-.507V3.255q0-.105-.174-.105v-.105h.932v.105q-.14 0-.14.105v1.718q0 .343-.1.57-.098.222-.296.356-.198.134-.495.18-.291.047-.676.047-.384 0-.681-.047-.292-.046-.49-.18t-.297-.356q-.099-.227-.099-.57V3.255q0-.105-.163-.105v-.105h.955zm4.959 1.258q.21 0 .349-.03.14-.034.221-.093.082-.058.117-.134.035-.081.035-.174 0-.093-.035-.17-.035-.08-.117-.139-.081-.058-.221-.087-.14-.035-.35-.035h-1.007v.862zm.151-1.363q.28 0 .507.052.227.047.39.158.163.104.25.28.088.168.088.418 0 .385-.227.589-.228.204-.612.273l.775 1.107q.04.058.093.07.058.012.105.012v.104h-1.09v-.104q.053 0 .088-.018.04-.017.04-.046 0-.03-.022-.065-.024-.04-.07-.104l-.641-.909h-.833v1.037q0 .052.035.081.04.024.14.024v.104h-1.008v-.104q.169 0 .169-.105V3.255q0-.105-.169-.105v-.105Zm2.261 2.102.059.03q0 .052.023.093.04.07.157.14.123.064.274.116.157.052.326.087.17.03.303.03.099 0 .256-.012.158-.018.309-.064.151-.047.262-.128.11-.082.11-.216t-.104-.198q-.1-.064-.268-.093-.163-.03-.379-.035-.21-.012-.43-.03-.222-.017-.437-.057-.21-.041-.379-.134-.163-.1-.268-.262-.099-.17-.099-.437 0-.18.082-.356.087-.174.262-.308.174-.134.442-.216.268-.087.63-.087.308 0 .535.047.227.046.39.099.17.052.28.099.116.046.192.046.082 0 .117-.035l.07.047-.402.728-.059-.023q-.011-.082-.046-.134-.047-.07-.157-.134-.105-.07-.25-.123-.146-.052-.315-.081-.17-.035-.338-.035-.128 0-.268.023-.134.018-.245.058-.11.041-.186.111-.07.064-.07.163 0 .14.099.21.105.07.268.105.169.035.379.046.215.012.436.03.222.017.431.063.216.041.379.14.169.093.268.256.105.164.105.426 0 .302-.163.495-.158.192-.396.303-.24.11-.519.151-.274.035-.512.035-.332 0-.56-.035-.22-.04-.372-.093-.146-.058-.233-.1-.088-.046-.152-.046-.04 0-.075.047l-.082-.047zm6.322-1.473q0-.064-.053-.093-.046-.035-.169-.035h-1.887v.722h1.142q.116 0 .18-.03.064-.034.064-.168h.105v.909h-.105q0-.134-.064-.17-.064-.04-.18-.04h-1.142v.804h1.945q.088 0 .14-.041.058-.04.058-.11h.105v.797h-.105q0-.087-.058-.099-.052-.012-.14-.012h-2.714v-.104q.041 0 .07-.024.035-.029.035-.081V3.255q0-.053-.035-.076-.029-.03-.07-.03v-.104h2.656q.123 0 .17-.035.052-.04.052-.105h.104v.769Zm2.599.734q.21 0 .35-.03.139-.034.22-.093.082-.058.117-.134.035-.081.035-.174 0-.093-.035-.17-.035-.08-.116-.139-.082-.058-.222-.087-.14-.035-.35-.035h-1.007v.862zm.151-1.363q.28 0 .507.052.227.047.39.158.163.104.25.28.088.168.088.418 0 .385-.227.589-.227.204-.612.273l.775 1.107q.04.058.093.07.058.012.105.012v.104h-1.09v-.104q.053 0 .088-.018.041-.017.041-.046 0-.03-.023-.065-.024-.04-.07-.104l-.64-.909h-.834v1.037q0 .052.035.081.041.024.14.024v.104h-1.008v-.104q.17 0 .17-.105V3.255q0-.105-.17-.105v-.105Zm2.81 0v.105q-.053 0-.1.017-.046.012-.046.07 0 .035.081.169.088.128.198.297.117.163.239.338.122.175.198.297l.681-.938q.047-.07.076-.11.03-.041.03-.076 0-.041-.059-.053-.052-.011-.099-.011v-.105h1.02v.105q-.047 0-.088.011-.04.006-.088.041-.04.03-.093.093-.046.059-.116.163l-.99 1.404v1.037q0 .105.134.105v.104h-.92v-.104q.052 0 .087-.024.035-.029.035-.081V4.862l-1.124-1.573q-.041-.058-.129-.099-.081-.04-.14-.04v-.105Zm2.371 3.74q.088-.024.198-.094.111-.064.198-.157.094-.088.152-.193.058-.104.046-.21-.011-.023-.064-.028-.052-.006-.099-.006-.145 0-.256-.093-.105-.1-.105-.274 0-.169.117-.291.122-.123.273-.123.233 0 .35.17.122.168.122.413 0 .186-.081.355-.076.175-.204.32-.128.146-.297.25-.17.106-.35.146zm3.306-.781q.151 0 .151-.105V3.255q0-.105-.151-.105v-.105h.967v.105q-.152 0-.152.105v2.644q0 .105.152.105v.104h-.967zm1.772 0q.11 0 .11-.105V3.255q0-.105-.11-.105v-.105h.996v.105q-.046 0-.046.058 0 .047.116.163l1.672 1.736V3.255q0-.105-.152-.105v-.105h.88v.105q-.11 0-.11.105v2.644q0 .105.11.105v.104h-.944v-.104q.076 0 .076-.053 0-.04-.093-.134l-1.777-1.852V5.9q0 .105.134.105v.104h-.862zm7.521-.315h-.035q-.012-.006-.029-.006-.035 0-.169.07-.128.07-.332.157-.198.088-.454.152t-.536.064q-.367 0-.705-.093-.338-.093-.6-.286-.256-.198-.407-.489-.152-.291-.152-.681 0-.385.152-.676.151-.297.407-.495.262-.198.6-.297.338-.1.705-.1.297 0 .536.048.244.046.425.099.18.052.285.099.105.046.129.046.029 0 .046-.029l.035-.047.087.07-.454.705-.058-.04q0-.018-.006-.036 0-.017-.006-.04-.012-.065-.117-.129-.104-.07-.262-.122-.151-.052-.326-.087-.169-.035-.314-.035-.245 0-.472.07-.221.07-.39.204-.163.134-.262.332-.1.192-.1.442t.1.449q.099.192.262.326.169.134.39.204.227.07.472.07.186 0 .39-.041.204-.047.373-.11.169-.07.28-.152.116-.088.116-.163 0-.041-.024-.07l.082-.047.384.617zm.73.04q0-.168.122-.29.122-.123.291-.123.17 0 .292.123.122.122.122.29 0 .17-.122.286-.123.11-.292.11-.169 0-.29-.11-.123-.116-.123-.285z" aria-label="LANDSCAPING &amp; NURSERY, INC." transform="translate(-315.762 16.473) scale(1.05193)"></path></svg>